<svg id="visual" viewBox="0 0 900 600" width="900" height="600" xmlns="http://www.w3.org/2000/svg" xmlns:xlink="http://www.w3.org/1999/xlink" version="1.1"><rect x="0" y="0" width="900" height="600" fill="#001220"></rect><defs><linearGradient id="grad1_0" x1="33.3%" y1="100%" x2="100%" y2="0%"><stop offset="20%" stop-color="#ff9fb3" stop-opacity="1"></stop><stop offset="80%" stop-color="#ff9fb3" stop-opacity="1"></stop></linearGradient></defs><defs><linearGradient id="grad1_1" x1="33.3%" y1="100%" x2="100%" y2="0%"><stop offset="20%" stop-color="#ff9fb3" stop-opacity="1"></stop><stop offset="80%" stop-color="#001220" stop-opacity="1"></stop></linearGradient></defs><defs><linearGradient id="grad2_0" x1="0%" y1="100%" x2="66.7%" y2="0%"><stop offset="20%" stop-color="#ff9fb3" stop-opacity="1"></stop><stop offset="80%" stop-color="#ff9fb3" stop-opacity="1"></stop></linearGradient></defs><defs><linearGradient id="grad2_1" x1="0%" y1="100%" x2="66.7%" y2="0%"><stop offset="20%" stop-color="#001220" stop-opacity="1"></stop><stop offset="80%" stop-color="#ff9fb3" stop-opacity="1"></stop></linearGradient></defs><g transform="translate(900, 600)"><path d="M-405.6 0C-397.6 -50.2 -389.6 -100.3 -373.2 -154.6C-356.9 -208.9 -332.1 -267.3 -286.8 -286.8C-241.5 -306.3 -175.6 -286.9 -124.4 -300.3C-73.1 -313.6 -36.6 -359.6 0 -405.6L0 0Z" fill="#6e567c"></path><path d="M-202.8 0C-198.8 -25.1 -194.8 -50.2 -186.6 -77.3C-178.4 -104.4 -166.1 -133.7 -143.4 -143.4C-120.8 -153.2 -87.8 -143.5 -62.2 -150.1C-36.6 -156.8 -18.3 -179.8 0 -202.8L0 0Z" fill="#ff9fb3"></path></g><g transform="translate(0, 0)"><path d="M405.6 0C400.5 52.8 395.4 105.5 374.7 155.2C354.1 204.9 317.8 251.5 272.9 272.9C228.1 294.4 174.7 290.7 127.8 308.6C80.9 326.5 40.5 366.1 0 405.6L0 0Z" fill="#6e567c"></path><path d="M202.8 0C200.3 26.4 197.7 52.8 187.4 77.6C177 102.5 158.9 125.8 136.5 136.5C114.1 147.2 87.4 145.3 63.9 154.3C40.5 163.2 20.2 183 0 202.8L0 0Z" fill="#ff9fb3"></path></g></svg>