<svg xmlns="http://www.w3.org/2000/svg" version="1.1" xmlns:xlink="http://www.w3.org/1999/xlink" xmlns:svgjs="http://svgjs.dev/svgjs" viewBox="0 0 1422 800"><defs><linearGradient x1="50%" y1="0%" x2="50%" y2="100%" id="oooscillate-grad"><stop stop-color="hsl(206, 75%, 49%)" stop-opacity="1" offset="0%"></stop><stop stop-color="hsl(331, 90%, 56%)" stop-opacity="1" offset="100%"></stop></linearGradient></defs><g stroke-width="2.5" stroke="url(#oooscillate-grad)" fill="none" stroke-linecap="round"><path d="M 0 1292 Q 355.5 -100 711 400 Q 1066.5 900 1422 1292" stroke-dasharray="2 5" opacity="0.16"></path><path d="M 0 1254 Q 355.5 -100 711 400 Q 1066.5 900 1422 1254" stroke-dasharray="5 1" opacity="0.40"></path><path d="M 0 1216 Q 355.5 -100 711 400 Q 1066.5 900 1422 1216" stroke-dasharray="1 5" opacity="0.34"></path><path d="M 0 1178 Q 355.5 -100 711 400 Q 1066.5 900 1422 1178" stroke-dasharray="3 2" opacity="0.33"></path><path d="M 0 1140 Q 355.5 -100 711 400 Q 1066.5 900 1422 1140" stroke-dasharray="3 4" opacity="0.27"></path><path d="M 0 1102 Q 355.5 -100 711 400 Q 1066.5 900 1422 1102" stroke-dasharray="1 3" opacity="0.97"></path><path d="M 0 1064 Q 355.5 -100 711 400 Q 1066.5 900 1422 1064" stroke-dasharray="3 7" opacity="0.83"></path><path d="M 0 1026 Q 355.5 -100 711 400 Q 1066.5 900 1422 1026" stroke-dasharray="2 2" opacity="0.74"></path><path d="M 0 988 Q 355.5 -100 711 400 Q 1066.5 900 1422 988" stroke-dasharray="6 4" opacity="0.55"></path><path d="M 0 950 Q 355.5 -100 711 400 Q 1066.5 900 1422 950" stroke-dasharray="3 6" opacity="0.99"></path><path d="M 0 912 Q 355.5 -100 711 400 Q 1066.5 900 1422 912" stroke-dasharray="4 7" opacity="0.57"></path><path d="M 0 874 Q 355.5 -100 711 400 Q 1066.5 900 1422 874" stroke-dasharray="4 5" opacity="0.51"></path><path d="M 0 836 Q 355.5 -100 711 400 Q 1066.5 900 1422 836" stroke-dasharray="1 5" opacity="0.74"></path><path d="M 0 798 Q 355.5 -100 711 400 Q 1066.5 900 1422 798" stroke-dasharray="1 3" opacity="0.52"></path><path d="M 0 760 Q 355.5 -100 711 400 Q 1066.5 900 1422 760" stroke-dasharray="5 2" opacity="0.33"></path><path d="M 0 722 Q 355.5 -100 711 400 Q 1066.5 900 1422 722" stroke-dasharray="2 5" opacity="0.11"></path><path d="M 0 684 Q 355.5 -100 711 400 Q 1066.5 900 1422 684" stroke-dasharray="4 2" opacity="0.85"></path><path d="M 0 646 Q 355.5 -100 711 400 Q 1066.5 900 1422 646" stroke-dasharray="4 2" opacity="0.36"></path><path d="M 0 608 Q 355.5 -100 711 400 Q 1066.5 900 1422 608" stroke-dasharray="0 1" opacity="0.33"></path><path d="M 0 570 Q 355.5 -100 711 400 Q 1066.5 900 1422 570" stroke-dasharray="4 4" opacity="0.48"></path><path d="M 0 532 Q 355.5 -100 711 400 Q 1066.5 900 1422 532" stroke-dasharray="5 4" opacity="0.24"></path><path d="M 0 494 Q 355.5 -100 711 400 Q 1066.5 900 1422 494" opacity="0.95"></path><path d="M 0 456 Q 355.5 -100 711 400 Q 1066.5 900 1422 456" stroke-dasharray="1 4" opacity="0.26"></path><path d="M 0 418 Q 355.5 -100 711 400 Q 1066.5 900 1422 418" stroke-dasharray="6 1" opacity="0.39"></path><path d="M 0 380 Q 355.5 -100 711 400 Q 1066.5 900 1422 380" stroke-dasharray="0 2" opacity="0.09"></path><path d="M 0 342 Q 355.5 -100 711 400 Q 1066.5 900 1422 342" stroke-dasharray="5 2" opacity="0.26"></path><path d="M 0 304 Q 355.5 -100 711 400 Q 1066.5 900 1422 304" stroke-dasharray="4 4" opacity="0.92"></path><path d="M 0 266 Q 355.5 -100 711 400 Q 1066.5 900 1422 266" stroke-dasharray="3 4" opacity="0.08"></path><path d="M 0 228 Q 355.5 -100 711 400 Q 1066.5 900 1422 228" stroke-dasharray="3 1" opacity="0.48"></path><path d="M 0 190 Q 355.5 -100 711 400 Q 1066.5 900 1422 190" stroke-dasharray="1 5" opacity="0.85"></path><path d="M 0 152 Q 355.5 -100 711 400 Q 1066.5 900 1422 152" stroke-dasharray="2 0" opacity="0.71"></path><path d="M 0 114 Q 355.5 -100 711 400 Q 1066.5 900 1422 114" stroke-dasharray="1 0" opacity="0.61"></path><path d="M 0 76 Q 355.5 -100 711 400 Q 1066.5 900 1422 76" stroke-dasharray="2 3" opacity="0.85"></path></g></svg>