<svg xmlns="http://www.w3.org/2000/svg" version="1.1" xmlns:xlink="http://www.w3.org/1999/xlink" xmlns:svgjs="http://svgjs.dev/svgjs" viewBox="0 0 1422 800"><defs><linearGradient x1="50%" y1="0%" x2="50%" y2="100%" id="ccchaos-grad"><stop stop-color="hsl(206, 75%, 49%)" stop-opacity="1" offset="0%"></stop><stop stop-color="hsl(331, 90%, 56%)" stop-opacity="1" offset="100%"></stop></linearGradient></defs><g stroke-width="2" stroke="url(#ccchaos-grad)" fill="none" stroke-linecap="round"><path d="M702.05 102.57C711.71 106.55 721.46 112.03 731.29 118.27 741.14 124.15 751.08 129.46 761.12 133.72 771.2 136.23 781.4 137.4 791.7 137.42 802.06 136.16 812.54 134.6 823.09 133.29 833.7 132.23 844.37 132.41 855.04 134.15 865.69 137.23 876.27 142.15 886.65 148.77 896.88 156.64 906.78 165.76 916.2 175.74 925.24 186.09 933.6 196.65 941.15 207.11 948.07 217.08 953.98 226.56 958.77 235.46 962.8 243.52 965.64 251.01 967.26 258 968.22 264.26 968.11 270.27 967.05 276.18 965.75 281.65 963.87 287.27 961.65 293.15 959.89 298.87 958.29 305.01 957.13 311.63 957.11 318.21 957.94 325.32 959.76 332.96 963.05 340.6 967.38 348.77 972.64 357.44 979.06 366.11 986 375.27 993.09 384.91 1000.4 394.56 1006.93 404.5 1012.34 414.7 1016.9 424.95 1019.78 435.54 1020.84 446.46 1020.51 457.49 1018.25 468.93 1014.17 480.75 1008.81 492.7 1001.93 505.01 993.81 517.61 984.97 530.16 975.38 542.79 965.32 555.26 955.23 567.27 945.09 578.68 935.12 589.13 925.63 598.47 916.52 606.33 907.88 612.37 899.92 616.85 892.43 619.3 885.37 619.72 878.95 618.96 872.83 616.75 866.92 613.6 858.75 609.73 842.54 610.97 834.03 619.73 828.33 629.62 822.25 642.01 815.75 656.18 809.23 671.23 802.26 685.77 794.82 698.39 787.34 708.09 779.4 713.61 771.01 714.29 762.59 710.62 753.74 702.66 744.49 691.48 735.23 679.34 725.59 667.37 715.61 657.4 705.63 651.5 695.57 650.01 685.46 652.91 675.37 660.08 665.26 669.74 655.16 680.31 645.1 690.82 635.08 699.05 625.13 703.84 615.25 704.99 605.46 701.66 595.84 694.17 586.3 683.44 576.96 670.09 567.86 655.31 558.9 640.26 550.23 625.87 541.91 612.95 533.77 602.16 526.03 593.69 518.73 587.49 511.65 583.72 505.04 581.67 498.95 580.78 490.37 581.35 476.03 581.04 470.18 578.03 466.48 574.8 463.17 570.12 460.23 564.11 457.19 557.27 454.44 549.29 451.93 540.42 449.2 531 446.66 520.97 444.29 510.57 441.63 499.9 439.13 489.08 436.8 478.25 434.21 467.34 431.84 456.54 429.75 445.95 427.51 435.35 425.65 424.98 424.25 414.89 422.88 404.8 422.13 395.19 422.02 386.06 422.11 376.88 422.92 368.11 424.45 359.69 426.27 351.14 428.82 342.84 432.06 334.7 435.58 326.3 439.75 317.92 444.49 309.44 449.41 300.57 454.83 291.45 460.67 282.02 466.54 272.11 472.74 261.83 479.2 251.2 485.56 240.23 492.1 229.08 498.79 217.92 505.28 206.88 511.89 196.24 518.6 186.3 525.07 177.15 531.65 169.17 538.33 162.62 544.8 157.3 551.42 153.54 558.19 151.34 564.79 150.03 571.6 149.79 578.62 150.25 585.53 150.44 592.69 150.42 600.12 149.75 607.48 147.62 615.12 144.29 623.06 139.71 630.95 133.65 639.15 126.86 647.65 119.86 656.12 112.89 664.89 106.99 673.96 102.77 683.02 100.29 692.38 100.21 702.05 102.57" stroke-dasharray="7 7" transform="rotate(0, 711, 400)" opacity="0.16"></path><path d="M706.58 113.24C715.97 117.15 725.47 122.52 735.05 128.66 744.66 134.55 754.37 139.98 764.17 144.48 774 147.37 783.95 148.99 793.97 149.45 804.03 148.56 814.17 147.21 824.34 145.87 834.52 144.52 844.71 144.13 854.81 145.02 864.86 147.04 874.73 150.75 884.35 156.12 893.75 162.75 902.75 170.77 911.2 179.86 919.26 189.59 926.61 199.81 933.13 210.22 939.07 220.46 944.04 230.46 947.95 240.07 951.2 249.04 953.38 257.49 954.49 265.47 955.09 272.75 954.78 279.67 953.68 286.36 952.49 292.53 950.86 298.68 949.02 304.92 947.69 310.88 946.59 317.1 945.93 323.67 946.36 330.12 947.57 337 949.68 344.36 953.12 351.67 957.47 359.49 962.63 367.83 968.82 376.16 975.43 385.02 982.16 394.43 989.07 403.85 995.26 413.61 1000.44 423.71 1004.86 433.84 1007.77 444.33 1009.02 455.16 1009.02 466.04 1007.25 477.26 1003.78 488.75 999.12 500.23 993 511.89 985.65 523.59 977.57 535.05 968.66 546.29 959.2 557.06 949.59 567.18 939.81 576.44 930.06 584.51 920.63 591.47 911.46 596.9 902.64 600.59 894.38 603.03 886.52 603.78 879.04 602.98 872.14 601.59 865.54 599.37 859.18 596.87 853.26 595.32 847.43 594.71 841.62 595.72 836.07 599.23 830.39 605.17 824.52 613.67 818.77 624.73 812.73 637.68 806.35 651.76 799.99 666.07 793.25 679.38 786.11 690.45 778.96 698.54 771.38 702.6 763.41 702.17 755.41 697.87 747.01 689.79 738.23 678.96 729.44 667.42 720.29 656.14 710.8 646.73 701.31 641.03 691.73 639.34 682.11 641.66 672.51 647.95 662.88 656.7 653.27 666.54 643.69 676.67 634.16 685.06 624.72 690.61 615.34 693.07 606.08 691.49 596.99 685.99 588 677.28 579.21 665.73 570.68 652.3 562.29 638.03 554.2 623.73 546.46 610.24 538.9 598.24 531.73 588.07 525 579.88 518.46 573.91 512.38 569.73 506.79 566.97 498.91 565.39 485.7 564.03 480.28 562.07 475.26 558.5 466.69 544.63 462.92 534.56 460.25 527.01 457.74 518.7 455.38 509.82 452.74 500.64 450.24 491.09 447.9 481.33 445.31 471.44 442.92 461.47 440.8 451.52 438.54 441.54 436.65 431.62 435.19 421.82 433.77 412.02 432.94 402.54 432.73 393.39 432.72 384.19 433.41 375.25 434.79 366.51 436.46 357.64 438.84 348.88 441.9 340.14 445.24 331.17 449.21 322.1 453.77 312.86 458.51 303.3 463.75 293.48 469.42 283.37 475.16 272.95 481.23 262.29 487.58 251.44 493.86 240.51 500.34 229.63 506.98 219.01 513.46 208.77 520.06 199.16 526.77 190.47 533.26 182.7 539.85 176.18 546.54 171.08 553.03 167.1 559.63 164.52 566.38 163.24 572.95 162.57 579.69 162.64 586.62 163.1 593.42 163.03 600.45 162.53 607.71 161.25 614.88 158.49 622.32 154.57 630.03 149.52 637.68 143.19 645.62 136.3 653.85 129.37 662.04 122.62 670.54 117 679.33 113.07 688.1 110.82 697.18 110.87 706.58 113.24" stroke-dasharray="7 10" transform="rotate(4.04, 711, 400)" opacity="0.49"></path><path d="M711.4 123.91C720.52 127.75 729.74 132.99 739.05 139.02 748.38 144.88 757.81 150.39 767.31 155.12 776.84 158.37 786.44 160.42 796.1 161.35 805.77 160.89 815.47 159.84 825.15 158.6 834.82 157.11 844.41 156.3 853.86 156.51 863.2 157.59 872.31 160.17 881.09 164.3 889.62 169.64 897.69 176.42 905.19 184.41 912.28 193.2 918.67 202.75 924.23 212.74 929.26 222.87 933.38 233.01 936.53 242.98 939.13 252.57 940.79 261.78 941.51 270.58 941.85 278.81 941.45 286.67 940.41 294.21 939.39 301.26 938.07 308.15 936.63 314.99 935.73 321.49 935.1 328.11 934.92 334.93 935.76 341.57 937.32 348.52 939.67 355.85 943.23 363.1 947.57 370.8 952.62 378.96 958.56 387.1 964.85 395.75 971.22 404.93 977.75 414.11 983.61 423.63 988.54 433.45 992.83 443.29 995.73 453.44 997.14 463.84 997.43 474.23 996.1 484.83 993.21 495.53 989.21 506.11 983.81 516.66 977.22 526.98 969.89 536.95 961.7 546.45 952.89 555.23 943.84 563.31 934.5 570.36 925.07 576.15 915.83 580.96 906.73 584.33 897.86 586.2 889.44 587.21 881.32 586.95 873.54 585.66 866.26 584.32 859.25 582.72 852.49 581.4 846.15 581.39 839.94 582.67 833.79 585.72 827.93 591.17 822.01 598.83 815.98 608.66 810.11 620.49 804.02 633.61 797.68 647.25 791.39 660.59 784.8 672.53 777.87 682.02 770.95 688.54 763.68 691.25 756.05 689.84 748.4 685.03 740.4 676.92 732.06 666.46 723.7 655.53 715 644.94 706 636.06 696.99 630.57 687.91 628.7 678.78 630.47 669.68 635.95 660.56 643.8 651.46 652.86 642.41 662.51 633.41 670.9 624.51 676.99 615.67 680.54 606.97 680.52 598.45 676.89 590.02 670.19 581.82 660.55 573.88 648.73 566.08 635.63 558.58 621.91 551.43 608.39 544.45 595.72 537.85 584.35 531.67 574.56 525.67 566.65 520.1 560.43 514.98 555.7 507.75 551.47 495.58 547.25 490.55 545.26 485.82 542.62 477.6 532.4 473.92 524.61 471.29 518.7 468.8 511.97 466.45 504.55 463.82 496.86 461.31 488.63 458.97 480 456.37 471.24 453.98 462.21 451.83 452.98 449.56 443.73 447.63 434.35 446.13 424.9 444.66 415.45 443.76 406.14 443.46 396.98 443.36 387.78 443.92 378.68 445.16 369.63 446.68 360.48 448.88 351.3 451.75 342.05 454.89 332.62 458.66 323.03 463 313.25 467.54 303.25 472.59 293.04 478.07 282.64 483.63 272.11 489.55 261.49 495.76 250.89 501.93 240.44 508.33 230.27 514.89 220.58 521.34 211.46 527.91 203.16 534.59 195.89 541.09 189.57 547.69 184.5 554.38 180.78 560.89 177.97 567.5 176.35 574.23 175.76 580.79 175.47 587.5 175.63 594.36 175.88 601.1 175.4 608.03 174.33 615.17 172.39 622.21 169.01 629.5 164.54 637.02 159.08 644.48 152.54 652.21 145.62 660.2 138.82 668.16 132.33 676.41 127.01 684.94 123.38 693.46 121.36 702.28 121.53 711.4 123.91" stroke-dasharray="6 10" transform="rotate(8.08, 711, 400)" opacity="0.72"></path><path d="M716.19 134.58C725.03 138.33 733.96 143.44 742.96 149.34 751.97 155.15 761.06 160.72 770.2 165.62 779.36 169.2 788.56 171.68 797.76 173.08 806.97 173.1 816.15 172.43 825.26 171.4 834.32 169.93 843.24 168.87 851.97 168.56 860.56 168.86 868.85 170.44 876.76 173.41 884.41 177.47 891.57 182.95 898.13 189.68 904.31 197.33 909.79 205.91 914.48 215.15 918.71 224.77 922.1 234.66 924.62 244.61 926.69 254.44 927.94 264.07 928.39 273.43 928.59 282.39 928.19 291.02 927.28 299.35 926.49 307.25 925.5 314.93 924.47 322.46 924.01 329.66 923.84 336.84 924.09 344.1 925.31 351.15 927.17 358.39 929.73 365.88 933.37 373.27 937.69 380.99 942.6 389.09 948.3 397.15 954.27 405.63 960.28 414.56 966.44 423.48 971.98 432.65 976.66 442.03 980.79 451.41 983.68 460.97 985.21 470.65 985.76 480.27 984.82 489.92 982.45 499.49 979.06 508.86 974.36 517.98 968.5 526.68 961.92 534.96 954.46 542.58 946.33 549.35 937.89 555.47 929.07 560.51 920.06 564.36 911.13 567.45 902.21 569.32 893.43 570.01 884.97 570.26 876.74 569.69 868.76 568.59 861.21 567.9 853.9 567.43 846.81 567.65 840.11 569.4 833.56 572.6 827.11 577.57 820.93 584.71 814.76 593.75 808.55 604.51 802.5 616.69 796.31 629.62 789.95 642.51 783.67 654.68 777.16 665.15 770.38 673.06 763.63 678.1 756.58 679.57 749.24 677.31 741.89 672.09 734.24 664.03 726.28 653.98 718.32 643.68 710.06 633.74 701.52 625.39 692.99 620.12 684.39 618.09 675.77 619.37 667.17 624.06 658.57 631.03 650.01 639.29 641.49 648.37 633.04 656.61 624.71 663.04 616.44 667.46 608.31 668.78 600.38 666.85 592.54 662.09 584.93 654.4 577.6 644.36 570.38 632.73 563.48 620.03 556.92 606.97 550.5 594.2 544.45 582.17 538.81 571.27 533.31 561.8 528.21 553.81 523.54 547.21 516.9 540.17 505.66 531.83 500.96 528.88 496.47 526.14 488.54 517.69 484.92 511.45 482.31 506.77 479.83 501.3 477.48 495.12 474.86 488.72 472.35 481.7 469.99 474.14 467.4 466.47 465 458.37 462.84 449.91 460.56 441.42 458.61 432.63 457.06 423.59 455.56 414.55 454.6 405.47 454.22 396.38 454.02 387.27 454.47 378.11 455.56 368.88 456.92 359.58 458.94 350.17 461.61 340.62 464.55 330.97 468.1 321.14 472.21 311.16 476.53 301.09 481.36 290.88 486.62 280.62 491.99 270.41 497.72 260.28 503.76 250.37 509.79 240.79 516.07 231.68 522.53 223.23 528.9 215.45 535.42 208.6 542.05 202.82 548.54 197.93 555.13 194.2 561.81 191.67 568.32 189.82 574.93 188.91 581.65 188.74 588.21 188.58 594.9 188.6 601.73 188.47 608.42 187.46 615.29 185.75 622.33 183.13 629.28 179.15 636.44 174.19 643.81 168.39 651.12 161.72 658.67 154.84 666.46 148.21 674.21 142.02 682.24 137.03 690.52 133.7 698.79 131.91 707.35 132.21 716.19 134.58" stroke-dasharray="8 10" transform="rotate(12.12, 711, 400)" opacity="0.83"></path><path d="M720.65 145.25C729.19 148.91 737.8 153.87 746.45 159.62 755.11 165.35 763.82 170.94 772.54 175.99 781.27 179.87 790 182.75 798.69 184.62 807.36 185.14 815.96 184.91 824.43 184.2 832.82 182.88 841.04 181.74 849 181.09 856.8 180.81 864.27 181.55 871.31 183.48 878.11 186.34 884.39 190.53 890.07 195.95 895.41 202.31 900.07 209.7 904 217.92 907.53 226.69 910.31 235.95 912.31 245.49 913.98 255.14 914.94 264.8 915.23 274.35 915.39 283.71 915.06 292.84 914.36 301.72 913.84 310.3 913.2 318.65 912.59 326.8 912.54 334.68 912.79 342.46 913.46 350.2 915 357.75 917.12 365.36 919.86 373.09 923.55 380.72 927.82 388.55 932.57 396.62 938.02 404.66 943.68 412.99 949.34 421.61 955.13 430.24 960.35 438.96 964.8 447.76 968.76 456.54 971.61 465.34 973.23 474.08 973.99 482.75 973.41 491.25 971.51 499.49 968.69 507.51 964.65 515.1 959.49 522.12 953.64 528.73 946.92 534.6 939.48 539.58 931.7 544.02 923.47 547.48 914.95 549.89 906.42 551.83 897.81 552.83 889.22 553.03 880.86 553.17 872.64 552.93 864.6 552.61 856.89 553.03 849.39 554.03 842.08 555.98 835.1 559.52 828.27 564.53 821.56 571.19 815.12 579.68 808.71 589.7 802.31 600.96 796.08 613.11 789.78 625.49 783.37 637.39 777.05 648.24 770.56 657.2 763.88 663.57 757.24 667.22 750.37 667.58 743.27 664.6 736.17 659.09 728.82 651.14 721.21 641.54 713.61 631.85 705.75 622.56 697.66 614.72 689.57 609.66 681.45 607.51 673.34 608.33 665.23 612.29 657.16 618.4 649.14 625.86 641.16 634.3 633.27 642.25 625.51 648.84 617.81 653.9 610.27 656.33 602.93 655.91 595.68 652.93 588.66 647.16 581.92 638.99 575.29 629.05 568.95 617.7 562.96 605.55 557.08 593.19 551.56 581.06 546.42 569.58 541.38 559.08 536.73 549.71 532.46 541.54 526.35 531.84 515.92 518.77 511.49 514.18 507.21 510.47 499.48 501.97 495.89 496.46 493.3 492.5 490.83 487.86 488.47 482.56 485.85 477.12 483.34 471.05 480.97 464.4 478.39 457.66 475.98 450.39 473.82 442.66 471.54 434.89 469.58 426.7 468 418.12 466.47 409.54 465.46 400.79 465 391.89 464.71 382.99 465.04 373.93 465.99 364.72 467.19 355.5 469.03 346.1 471.49 336.56 474.22 327 477.54 317.3 481.4 307.5 485.49 297.75 490.07 287.98 495.09 278.29 500.24 268.8 505.76 259.55 511.59 250.7 517.45 242.29 523.57 234.49 529.89 227.46 536.15 221.12 542.58 215.73 549.13 211.38 555.57 207.78 562.12 205.2 568.76 203.61 575.27 202.45 581.87 201.97 588.56 201.95 595.12 201.69 601.79 201.37 608.57 200.73 615.24 199.1 622.05 196.71 629.01 193.43 635.89 188.9 642.94 183.52 650.18 177.47 657.36 170.74 664.75 163.96 672.35 157.58 679.92 151.71 687.73 147.06 695.78 144.03 703.81 142.48 712.1 142.89 720.65 145.25" stroke-dasharray="7 1" transform="rotate(16.16, 711, 400)" opacity="0.20"></path><path d="M724.47 155.92C732.7 159.48 740.96 164.28 749.23 169.86 757.5 175.49 765.79 181.07 774.04 186.22 782.29 190.36 790.5 193.62 798.62 195.93 806.71 196.97 814.68 197.22 822.48 196.91 830.18 195.87 837.66 194.81 844.84 194.01 851.86 193.33 858.52 193.44 864.73 194.51 870.71 196.31 876.17 199.29 881.05 203.42 885.63 208.44 889.58 214.53 892.86 221.53 895.82 229.18 898.11 237.49 899.72 246.27 901.1 255.33 901.88 264.61 902.12 273.96 902.31 283.3 902.13 292.57 901.66 301.68 901.44 310.63 901.17 319.39 900.97 327.97 901.33 336.36 901.97 344.61 903 352.74 904.84 360.72 907.18 368.67 910.05 376.62 913.75 384.48 917.95 392.42 922.54 400.44 927.73 408.45 933.08 416.58 938.4 424.85 943.84 433.12 948.74 441.34 952.94 449.45 956.73 457.54 959.52 465.48 961.21 473.2 962.15 480.83 961.88 488.15 960.4 495.05 958.11 501.74 954.67 507.89 950.19 513.39 945.05 518.56 939.04 522.98 932.32 526.56 925.21 529.79 917.61 532.19 909.66 533.77 901.61 535.17 893.4 535.96 885.13 536.3 876.98 536.92 868.89 537.52 860.91 538.4 853.18 540.23 845.59 542.86 838.17 546.56 831.02 551.78 824 558.37 817.11 566.38 810.45 575.83 803.85 586.41 797.29 597.75 790.9 609.51 784.49 621.06 778.01 631.78 771.64 641.21 765.16 648.65 758.55 653.54 751.99 655.91 745.26 655.3 738.36 651.73 731.47 646.03 724.38 638.26 717.1 629.14 709.82 620.05 702.34 611.39 694.67 604.05 687.01 599.21 679.34 596.96 671.72 597.37 664.1 600.64 656.54 605.92 649.06 612.56 641.61 620.31 634.27 627.86 627.08 634.44 619.94 639.91 612.98 643.23 606.22 644.09 599.54 642.73 593.1 638.77 586.93 632.47 580.85 624.35 575.06 614.58 569.59 603.7 564.22 592.21 559.18 580.5 554.5 568.99 549.89 557.99 545.63 547.76 541.72 538.43 537.85 530.16 534.3 522.87 531.07 516.49 526.33 508.76 517.99 496.86 514.25 491.69 510.41 486.8 503.02 475.33 499.41 468.37 496.79 463.5 494.28 458.06 491.91 452.06 489.33 446 486.94 439.41 484.77 432.3 482.5 425.16 480.54 417.54 478.94 409.45 477.39 401.37 476.33 393.02 475.8 384.47 475.43 375.92 475.65 367.16 476.45 358.23 477.5 349.32 479.16 340.24 481.41 331.05 483.91 321.9 486.99 312.69 490.61 303.48 494.44 294.41 498.76 285.44 503.51 276.69 508.41 268.24 513.69 260.17 519.28 252.62 524.94 245.55 530.86 239.18 537 233.61 543.11 228.68 549.41 224.64 555.84 221.55 562.2 219.02 568.67 217.33 575.24 216.39 581.7 215.64 588.26 215.3 594.91 215.18 601.44 214.61 608.07 213.8 614.81 212.52 621.44 210.23 628.19 207.17 635.07 203.27 641.88 198.26 648.83 192.55 655.94 186.33 663 179.62 670.24 173.02 677.66 166.91 685.05 161.4 692.64 157.11 700.45 154.38 708.23 153.06 716.25 153.57 724.47 155.92" stroke-dasharray="6 5" transform="rotate(20.200000000000003, 711, 400)" opacity="0.64"></path><path d="M727.42 166.59C735.31 170.04 743.2 174.67 751.05 180.07 758.91 185.57 766.73 191.11 774.48 196.32 782.22 200.67 789.88 204.26 797.4 207 804.88 208.54 812.2 209.31 819.3 209.47 826.32 208.81 833.06 207.96 839.48 207.19 848.69 206.16 864.66 208.29 871.2 212.21 875.12 215.93 878.47 220.68 881.21 226.37 883.72 232.74 885.63 239.87 886.97 247.59 888.16 255.74 888.87 264.27 889.13 273.03 889.43 281.95 889.44 290.94 889.25 299.9 889.35 308.84 889.44 317.68 889.63 326.39 890.37 335 891.37 343.47 892.73 351.79 894.8 360.03 897.32 368.17 900.29 376.21 903.99 384.2 908.08 392.15 912.5 400.06 917.43 407.96 922.47 415.85 927.46 423.71 932.55 431.58 937.15 439.22 941.11 446.63 944.72 454 947.43 461.09 949.16 467.82 950.24 477.57 945.88 494.41 940.59 501.21 936.12 505.3 930.81 508.71 924.8 511.42 918.39 513.96 911.45 515.88 904.11 517.26 896.61 518.7 888.88 519.84 881.01 520.86 873.2 522.4 865.35 524.2 857.55 526.51 849.92 529.87 842.38 534.11 834.95 539.43 827.74 546.09 820.63 553.92 813.64 562.87 806.85 572.86 800.13 583.57 793.47 594.62 786.96 605.66 780.45 616.16 773.94 625.55 767.53 633.52 761.05 639.46 754.5 642.98 748 644.2 741.39 642.75 734.67 638.72 727.96 632.93 721.11 625.39 714.12 616.77 707.14 608.29 700.01 600.24 692.74 593.38 685.48 588.77 678.25 586.44 671.09 586.47 663.94 589.1 656.88 593.6 649.92 599.43 642.98 606.45 636.18 613.5 629.54 619.91 622.94 625.6 616.52 629.56 610.32 631.46 604.18 631.51 598.28 629.21 592.64 624.7 587.08 618.42 581.79 610.39 576.82 601.02 571.91 590.78 567.3 579.93 563.03 568.9 558.8 557.97 554.88 547.41 551.27 537.43 547.68 528.18 544.37 519.71 541.34 512.03 538.26 505.21 535.42 499.07 532.8 493.51 528.79 486.33 521.3 473.67 517.72 467.45 513.91 461.25 506.42 447.06 502.8 438.85 500.24 433.21 497.86 427.08 495.7 420.46 493.45 413.82 491.49 406.7 489.88 399.12 488.31 391.53 487.22 383.68 486.62 375.6 486.18 367.54 486.29 359.27 486.96 350.86 487.86 342.49 489.33 334 491.37 325.47 493.65 317.04 496.48 308.62 499.83 300.32 503.39 292.22 507.43 284.34 511.9 276.79 516.53 269.58 521.53 262.84 526.86 256.68 532.27 251.01 537.96 246.03 543.88 241.83 549.8 238.15 555.92 235.26 562.19 233.16 568.41 231.42 574.77 230.31 581.23 229.72 587.6 229.08 594.08 228.63 600.65 228.17 607.12 227.13 613.69 225.71 620.35 223.74 626.92 220.78 633.6 217.08 640.39 212.63 647.11 207.23 653.95 201.28 660.93 194.99 667.86 188.39 674.93 182.02 682.17 176.23 689.37 171.1 696.74 167.18 704.29 164.75 711.82 163.65 719.53 164.26 727.42 166.59" stroke-dasharray="1 11" transform="rotate(24.24, 711, 400)" opacity="0.35"></path><path d="M729.3 177.26C736.83 180.6 744.31 185.04 751.73 190.25 759.14 195.6 766.47 201.05 773.7 206.29 780.91 210.8 787.99 214.67 794.91 217.8 801.78 219.83 808.44 221.13 814.86 221.78 824.22 221.33 841.08 219.36 848.41 219.06 855.01 219.87 865.43 226.63 869.19 232.76 871.34 237.79 873 243.62 874.17 250.11 875.28 257.09 875.98 264.58 876.34 272.43 876.79 280.56 877.04 288.89 877.15 297.33 877.57 305.87 878.02 314.42 878.58 322.9 879.66 331.38 880.98 339.76 882.62 348.02 884.9 356.24 887.55 364.34 890.58 372.3 894.24 380.23 898.22 388.05 902.45 395.73 907.12 403.41 911.86 410.97 916.52 418.38 921.28 425.8 925.57 432.88 929.28 439.6 932.71 446.3 935.33 452.61 937.07 458.48 938.38 466.95 935.14 481.16 930.69 486.78 926.86 490.24 922.23 493.13 916.91 495.51 911.19 497.9 904.93 499.89 898.23 501.59 891.34 503.56 884.15 505.49 876.77 507.56 869.37 510.28 861.88 513.45 854.37 517.26 846.95 522.08 839.57 527.78 832.26 534.44 825.1 542.19 818.01 550.86 811.02 560.33 804.19 570.44 797.43 580.88 790.73 591.3 784.17 601.37 777.63 610.63 771.11 618.61 764.68 625.11 758.23 629.64 751.75 631.89 745.32 632.1 738.83 629.96 732.27 625.59 725.74 619.79 719.11 612.55 712.4 604.43 705.69 596.56 698.89 589.1 692 582.71 685.11 578.32 678.3 575.94 671.59 575.64 664.88 577.69 658.28 581.44 651.81 586.48 645.37 592.73 639.07 599.2 632.94 605.32 626.85 611.04 620.95 615.41 615.27 618.12 609.63 619.32 604.22 618.48 599.08 615.62 593.98 611.13 589.15 604.88 584.61 597.18 580.11 588.44 575.89 578.83 571.96 568.7 568.06 558.34 564.43 548 561.09 537.91 557.72 528.2 554.6 519.02 551.73 510.45 548.79 502.52 546.05 495.2 543.51 488.45 540.83 482.31 538.31 476.58 535.93 471.17 532.13 463.75 524.73 449.49 521.1 442.17 518.5 437.31 516 432.15 513.64 426.64 511.1 421.15 508.74 415.28 506.6 409 504.37 402.72 502.43 396.03 500.82 388.94 499.25 381.84 498.13 374.53 497.48 367.03 496.96 359.56 496.97 351.94 497.51 344.24 498.26 336.6 499.55 328.92 501.37 321.28 503.43 313.76 506.01 306.37 509.09 299.18 512.37 292.22 516.12 285.57 520.29 279.32 524.62 273.41 529.32 268.01 534.36 263.22 539.49 258.82 544.91 255.08 550.57 252.04 556.26 249.36 562.16 247.34 568.22 245.92 574.26 244.65 580.45 243.81 586.75 243.26 592.99 242.47 599.35 241.68 605.79 240.72 612.16 239.08 618.62 236.98 625.17 234.31 631.65 230.7 638.22 226.42 644.89 221.52 651.49 215.82 658.21 209.74 665.03 203.48 671.8 197.05 678.71 190.98 685.73 185.56 692.73 180.82 699.86 177.27 707.12 175.15 714.38 174.26 721.78 174.96 729.3 177.26" stroke-dasharray="5 0" transform="rotate(28.28, 711, 400)" opacity="0.88"></path><path d="M729.99 187.93C737.13 191.15 744.19 195.4 751.15 200.39 758.1 205.56 764.94 210.9 771.63 216.12 778.3 220.74 784.81 224.84 791.12 228.31 800.41 231.7 817.57 234.06 825.3 233.75 838.57 232.58 853.68 236.49 856.94 240.87 859.61 246.87 862.93 263.14 863.83 273 864.48 280.05 864.98 287.44 865.4 295.04 866.13 302.82 866.92 310.72 867.82 318.64 869.2 326.65 870.8 334.62 872.67 342.51 875.11 350.42 877.86 358.23 880.91 365.88 884.51 373.54 888.36 381.06 892.39 388.39 896.8 395.72 901.24 402.88 905.58 409.81 910.01 416.75 914.01 423.29 917.48 429.42 921.97 438.37 926.45 453.97 926.17 460.54 924.19 466.58 915.28 476.35 908.63 480.31 903.59 482.99 898 485.49 891.97 487.92 885.71 490.75 879.12 493.74 872.29 497.04 865.39 501.02 858.34 505.54 851.21 510.73 844.12 516.8 837 523.65 829.91 531.29 822.92 539.73 815.97 548.81 809.08 558.35 802.31 568.19 795.6 578.03 788.94 587.52 782.4 596.44 775.89 604.35 769.42 610.89 763.03 615.98 756.64 619.18 750.26 620.31 743.93 619.66 737.57 616.96 731.18 612.37 724.82 606.64 718.42 599.73 711.97 592.15 705.53 584.86 699.03 577.98 692.5 572.04 685.96 567.88 679.54 565.47 673.24 564.89 666.95 566.39 660.79 569.45 654.78 573.71 648.78 579.2 642.95 585.04 637.3 590.74 628.96 598.6 613.37 606.46 606.19 605.25 601.51 602.4 597.08 597.88 592.91 591.9 588.76 584.82 584.87 576.68 581.24 567.8 577.61 558.44 574.23 548.79 571.09 539.09 567.91 529.48 564.94 520.12 562.19 511.13 559.35 502.55 556.69 494.45 554.2 486.82 551.56 479.67 549.06 472.94 546.68 466.58 544.12 460.61 541.66 454.87 539.29 449.29 536.72 443.96 534.23 438.65 531.84 433.29 529.25 428.06 526.77 422.68 524.42 417.1 521.92 411.57 519.6 405.79 517.48 399.74 515.28 393.69 513.36 387.34 511.76 380.71 510.19 374.07 509.05 367.31 508.35 360.46 507.78 353.63 507.7 346.74 508.11 339.87 508.71 333.06 509.82 326.3 511.44 319.68 513.27 313.19 515.6 306.9 518.4 300.9 521.4 295.11 524.84 289.69 528.7 284.72 532.71 280.02 537.1 275.83 541.81 272.21 549.2 267.5 565.35 261.21 573.97 259.39 579.78 258.28 585.74 257.4 591.83 256.63 597.9 255.47 604.07 254.17 610.34 252.58 616.56 250.28 622.87 247.49 629.26 244.14 635.6 239.96 642.03 235.2 648.53 229.94 654.99 224.07 661.53 217.96 668.16 211.81 674.76 205.65 681.46 199.92 688.24 194.89 695.01 190.57 701.88 187.39 708.84 185.57 715.79 184.88 722.85 185.67 729.99 187.93" stroke-dasharray="11 0" transform="rotate(32.32, 711, 400)" opacity="0.85"></path><path d="M729.45 198.6C736.18 201.68 742.8 205.74 749.29 210.5 755.77 215.48 762.1 220.67 768.26 225.82 774.4 230.5 780.36 234.77 786.09 238.53 794.49 242.56 809.87 246.47 816.71 246.83 828.4 245.93 841.7 247.8 844.62 250.73 847.1 254.98 850.51 267.47 851.66 275.45 852.52 281.28 853.29 287.52 854.01 294.06 855.04 300.84 856.13 307.82 857.34 314.91 858.98 322.15 860.82 329.43 862.87 336.69 865.43 344.01 868.24 351.27 871.28 358.42 874.8 365.6 878.5 372.64 882.32 379.5 886.47 386.38 890.61 393.06 894.64 399.51 898.75 405.96 902.46 412.01 905.69 417.66 909.93 425.91 914.44 440.32 914.49 446.5 913.04 452.33 905.66 462.5 899.94 467.15 895.56 470.44 890.65 473.73 885.27 477.12 879.67 480.96 873.71 485.08 867.47 489.6 861.12 494.75 854.58 500.45 847.91 506.76 841.23 513.76 834.49 521.38 827.71 529.57 820.99 538.27 814.28 547.33 807.59 556.55 800.99 565.77 794.42 574.71 787.91 583.08 781.47 590.7 775.07 597.23 768.71 602.35 762.42 606.1 756.15 608.11 749.9 608.25 743.7 606.88 737.5 603.77 731.31 599.07 725.13 593.48 718.95 586.95 712.77 579.9 706.59 573.19 700.39 566.87 694.2 561.37 688 557.44 681.94 555.02 676.03 554.19 670.12 555.21 664.37 557.62 658.78 561.15 653.2 565.87 647.79 571.03 642.57 576.22 634.86 583.81 620.51 593.14 613.9 593.64 609.58 592.24 605.49 589.33 601.65 585.01 597.8 579.61 594.18 573.09 590.8 565.68 587.39 557.63 584.19 549.06 581.22 540.19 578.18 531.16 575.33 522.13 572.67 513.23 569.9 504.51 567.29 496.08 564.82 488 562.21 480.23 559.72 472.82 557.34 465.76 554.78 459.01 552.31 452.53 549.94 446.28 547.37 440.26 544.89 434.37 542.5 428.56 539.93 422.88 537.48 417.19 535.16 411.46 532.7 405.78 530.41 399.99 528.33 394.07 526.18 388.16 524.29 382.1 522.7 375.88 521.15 369.66 519.99 363.43 519.25 357.23 518.63 351.04 518.46 344.92 518.75 338.89 519.69 330.02 524.22 313.41 527.78 305.92 532.06 299.04 542.87 287.71 549.27 283.38 556.15 279.77 571.33 274.79 579.5 273.1 585.03 271.86 590.73 270.69 596.55 269.47 602.38 267.79 608.32 265.86 614.36 263.58 620.38 260.61 626.48 257.17 632.66 253.22 638.81 248.55 645.04 243.44 651.33 237.95 657.6 232.01 663.94 225.98 670.34 220.04 676.72 214.2 683.17 208.85 689.68 204.25 696.18 200.35 702.76 197.55 709.39 196.01 716.02 195.52 722.71 196.39 729.45 198.6" stroke-dasharray="2 10" transform="rotate(36.36, 711, 400)" opacity="0.65"></path><path d="M727.7 209.27C734.01 212.22 740.19 216.07 746.2 220.59 752.21 225.34 758.05 230.35 763.69 235.4 774.92 244.22 785.29 251.44 794.59 256.56 803.66 258.63 811.51 259.32 817.98 259.54 826.55 259.23 837 268.96 839.88 280.28 842.26 289.79 844.57 300.88 847.14 312.92 851.25 325.59 856.1 338.63 861.69 351.55 865.09 358.08 868.63 364.51 872.24 370.82 876.12 377.14 879.97 383.31 883.7 389.29 887.5 395.27 890.93 400.9 893.92 406.19 896.76 411.48 899.04 416.42 900.7 421.04 903.04 430.3 902.55 438.42 899.33 445.69 894.54 453.55 887.3 461.35 878.11 469.72 867.99 479.78 856.56 491.41 844.34 504.95 831.93 520.45 819.17 537.34 806.36 554.51 793.74 570.73 781.17 584.21 768.77 592.96 756.58 596.74 744.46 594.19 732.49 585.71 726.53 580.34 720.59 574.22 714.67 567.7 708.76 561.56 702.86 555.77 696.99 550.7 688.26 545.8 671.61 545.05 663.71 548.8 653.3 557.61 643.61 567.14 634.75 574.88 625.89 580.45 617.85 581.01 610.7 576.41 603.47 567.9 597.03 555.4 591.38 540.41 585.45 524.09 580.12 507.33 575.35 491.07 570.02 475.41 565.06 460.78 560.47 447.21 555.2 434.35 550.27 422.11 545.83 410.26 543.43 404.43 541.19 398.6 539.15 392.78 537.05 386.98 535.2 381.15 533.64 375.3 531.53 366.58 529.38 349.82 529.44 341.87 530.28 331.52 532.93 322.17 537.25 314.16 542.27 306.57 548.86 300.54 556.75 296.15 565.14 291.91 574.6 288.85 584.87 286.48 595.33 282.95 606.42 278.87 617.92 273.58 629.43 265.78 641.29 256.32 653.36 245.57 665.39 233.68 677.67 222.52 690.08 213.66 696.28 210.18 702.53 207.75 708.8 206.49 715.08 206.18 721.38 207.11 727.7 209.27" stroke-dasharray="9 7" transform="rotate(40.400000000000006, 711, 400)" opacity="0.33"></path><path d="M724.86 219.94C736.63 226.14 747.74 234.97 758.07 244.85 768.33 253.7 777.7 261.35 786.03 267.25 794.19 270.4 801.21 272.12 807 273.07 814.83 272.99 825.12 279.38 828.53 287.72 831.35 294.89 834.16 303.7 837.21 313.65 841.61 324.2 846.6 335.41 852.13 346.82 858.96 358.41 866.01 369.89 872.76 380.95 879.74 392.02 885.13 402.1 888.56 411.24 890.96 420.49 890.87 429.11 888.35 437.39 884.49 446.34 878.39 455.65 870.44 465.8 861.6 477.37 851.42 490.35 840.36 504.75 829.01 520.27 817.17 536.36 805.15 551.83 793.2 565.73 781.21 576.54 769.35 582.72 757.62 584.52 745.97 580.87 734.51 572.31 723.11 561.9 711.8 550.31 700.69 540.03 689.58 534.46 679.14 533.47 669.42 536.66 659.69 544.02 650.67 552.42 642.45 559.83 634.18 566.01 626.67 568.24 619.96 566.11 613.12 560.64 606.97 551.25 601.52 539.07 595.75 525.16 590.49 510.1 585.73 494.88 580.43 479.67 575.48 465.04 570.88 451.26 565.67 437.92 560.81 425.29 556.45 413.32 551.69 401.53 547.64 390.11 544.58 379.08 541.62 368.04 540.15 357.88 540.19 348.71 540.77 339.62 543.02 331.69 546.82 325.09 551.25 318.66 557.16 313.57 564.33 309.73 571.97 305.65 580.67 302.25 590.18 299.05 599.93 294.47 610.32 289.09 621.15 282.49 632.03 273.75 643.28 263.7 654.72 252.86 666.17 241.44 677.82 231.07 689.54 223.12 701.27 217.76 713.1 216.57 724.86 219.94" stroke-dasharray="9 4" transform="rotate(44.44, 711, 400)" opacity="0.34"></path><path d="M721.12 230.6C732.01 236.45 742.21 244.76 751.62 254.2 760.97 262.94 769.45 270.87 776.95 277.4 787.51 282.94 803.29 286.89 808.71 288.62 813.69 291.57 822.49 306.26 827.54 317.67 832.14 326.17 837.18 335.55 842.59 345.43 849.06 355.46 855.62 365.73 861.82 375.98 868.22 386.23 873.18 395.96 876.41 405.2 878.82 414.6 879.05 423.83 877.15 433.14 874.12 443.07 869.05 453.62 862.27 465.04 854.66 477.5 845.73 491.06 835.86 505.45 825.64 520.23 814.83 534.84 803.73 548.18 792.61 559.59 781.36 567.78 770.16 571.65 759.04 571.8 747.98 567.35 737.09 558.91 726.26 549.24 715.55 538.72 705.07 529.36 694.58 524.06 684.78 522.6 675.69 524.75 666.58 530.7 658.15 537.9 650.46 544.69 642.7 551.03 635.64 554.39 629.28 554.22 622.75 551.37 616.84 544.93 611.52 535.63 605.88 524.48 600.68 511.7 595.92 498.21 590.67 484.28 585.74 470.45 581.15 457.15 576.04 444 571.27 431.49 567.01 419.7 562.41 408.04 558.5 396.96 555.52 386.54 552.63 376.13 551.12 366.81 551 358.64 551.34 350.47 553.21 343.49 556.5 337.72 560.37 331.89 565.6 327.13 572.02 323.23 578.9 318.79 586.8 314.64 595.5 310.33 604.47 304.59 614.08 297.99 624.14 290.29 634.31 280.87 644.84 270.55 655.57 259.91 666.33 249.14 677.26 239.67 688.23 232.65 699.22 228.07 710.24 227.29 721.12 230.6" stroke-dasharray="7 2" transform="rotate(48.48, 711, 400)" opacity="0.17"></path><path d="M716.73 241.27C726.73 246.76 736.06 254.51 744.62 263.44 753.13 271.96 760.82 280.01 767.62 287.02 777.27 293.93 792.08 300.55 797.53 302.69 802.78 305.02 812.61 316.08 818.12 325.07 822.83 331.8 827.84 339.53 833.06 348.01 839.16 356.6 845.22 365.73 850.88 375.23 856.71 384.74 861.25 394.18 864.26 403.55 866.63 413.07 867.11 422.81 865.73 432.89 863.41 443.46 859.28 454.73 853.57 466.74 847.13 479.38 839.41 492.7 830.74 506.28 821.7 519.67 811.99 532.33 801.91 543.27 791.74 552.17 781.34 557.93 770.92 559.8 760.54 558.62 750.16 553.66 739.94 545.51 729.74 536.63 719.67 527.16 709.83 518.69 699.98 513.68 690.79 511.85 682.28 513.06 673.74 517.68 665.83 523.62 658.61 529.59 651.29 535.7 644.59 539.68 638.51 540.92 632.26 540.18 626.52 536.31 621.31 529.74 615.78 521.42 610.64 511.23 605.89 499.92 600.71 487.91 595.82 475.54 591.28 463.33 586.28 451.05 581.65 439.18 577.51 427.95 573.1 416.77 569.34 406.2 566.46 396.38 563.66 386.56 562.12 377.9 561.86 370.38 561.99 362.81 563.5 356.31 566.32 350.82 569.63 345.12 574.21 340.17 579.89 335.74 585.99 330.61 593.08 325.47 600.93 319.97 609.06 313.16 617.83 305.53 627.06 297.02 636.42 287.25 646.15 276.97 656.08 266.78 666.06 256.83 676.21 248.34 686.36 242.26 696.55 238.43 706.72 238.03 716.73 241.27" stroke-dasharray="8 10" transform="rotate(52.52, 711, 400)" opacity="0.32"></path><path d="M711.96 251.94C721.09 257.05 729.58 264.23 737.36 272.59 745.11 280.78 752.12 288.79 758.34 296.08 764.53 301.78 769.96 306.46 774.62 310.24 781.38 313.55 792.44 319.05 797.38 323.08 801.19 326.08 805.02 330.2 808.93 335.42 813.65 340.8 818.56 347.22 823.55 354.52 829.24 361.89 834.8 370.03 839.94 378.85 845.22 387.68 849.34 396.79 852.13 406.16 854.42 415.65 855.08 425.58 854.12 435.99 852.41 446.7 849.1 458.05 844.37 469.92 839.01 482.01 832.44 494.36 824.94 506.49 817.07 518.02 808.51 528.42 799.49 536.89 790.35 543.41 780.91 547.01 771.37 547.23 761.82 545.07 752.22 539.85 742.72 532.14 733.25 524.09 723.85 515.64 714.66 508.02 705.47 503.31 696.88 501.19 688.91 501.6 680.9 504.99 673.48 509.68 666.65 514.68 659.73 520.24 653.35 524.38 647.51 526.49 641.49 527.28 635.92 525.49 630.8 521.3 625.39 515.62 620.32 508.02 615.61 499.09 610.52 489.35 605.71 478.9 601.25 468.24 596.41 457.37 591.94 446.61 587.95 436.27 583.74 425.92 580.16 416.06 577.4 406.86 574.71 397.65 573.17 389.49 572.78 382.32 572.72 375.07 573.91 368.69 576.27 363.07 579.06 357.14 583.01 351.67 587.96 346.44 593.3 340.49 599.56 334.34 606.55 327.75 613.81 320.08 621.7 311.73 630.04 302.77 638.53 293 647.39 283.07 656.45 273.57 665.59 264.57 674.88 257.12 684.18 251.97 693.51 248.86 702.82 248.79 711.96 251.94" stroke-dasharray="5 2" transform="rotate(56.56, 711, 400)" opacity="0.48"></path><path d="M707.12 262.61C715.4 267.32 723.1 273.92 730.17 281.65 737.21 289.4 743.62 297.21 749.36 304.59 755.09 310.77 760.2 316.16 764.69 320.78 771.3 325.55 782.71 332.93 788 337.04 791.97 339.76 795.95 343.35 799.95 347.86 804.6 352.38 809.34 357.86 814.05 364.28 819.31 370.7 824.38 378.02 829 386.2 833.74 394.38 837.45 403.07 840 412.19 842.17 421.38 842.95 431.11 842.33 441.29 841.13 451.61 838.53 462.39 834.67 473.4 830.29 484.33 824.79 495.15 818.41 505.37 811.68 514.78 804.25 522.84 796.33 528.94 788.25 533.3 779.83 535.09 771.23 534.04 762.59 531.2 753.85 525.96 745.14 518.82 736.44 511.62 727.78 504.15 719.26 497.35 710.74 492.97 702.75 490.64 695.31 490.37 687.82 492.64 680.85 496.12 674.39 500.07 667.85 504.84 661.76 508.74 656.14 511.23 650.35 512.97 644.94 512.69 639.92 510.4 634.65 506.97 629.68 501.74 625.04 495.1 620.08 487.71 615.4 479.38 611.06 470.53 606.42 461.39 602.13 452.08 598.33 442.89 594.35 433.66 590.97 424.68 588.34 416.12 585.77 407.57 584.25 399.81 583.76 392.81 583.54 385.72 584.44 379.24 586.38 373.24 588.68 366.93 592.03 360.82 596.29 354.74 600.88 348.03 606.32 341.03 612.45 333.63 618.83 325.41 625.81 316.72 633.24 307.71 640.81 298.27 648.76 288.99 656.91 280.36 665.15 272.42 673.55 266.03 681.97 261.79 690.41 259.35 698.85 259.58 707.12 262.61" stroke-dasharray="4 1" transform="rotate(60.599999999999994, 711, 400)" opacity="0.40"></path><path d="M702.54 273.28C709.98 277.59 716.94 283.58 723.35 290.65 729.75 297.87 735.63 305.32 740.95 312.59 746.29 319.01 751.13 324.89 755.47 330.17 761.97 336.26 773.6 345.9 779.11 350.57 783.16 353.46 787.17 356.96 791.16 361.17 795.66 365.28 800.16 370.22 804.55 376.01 809.36 381.78 813.94 388.44 818.07 395.99 822.29 403.54 825.6 411.65 827.9 420.23 829.92 428.84 830.76 437.93 830.41 447.35 829.61 456.77 827.61 466.43 824.52 476.04 821 485.37 816.48 494.29 811.13 502.37 805.48 509.59 799.15 515.41 792.3 519.38 785.31 521.91 777.92 522.27 770.29 520.31 762.62 517.11 754.79 512.05 746.91 505.57 739.03 499.22 731.14 492.69 723.32 486.68 715.5 482.64 708.12 480.19 701.2 479.36 694.25 480.66 687.71 483.01 681.62 485.89 672.55 491.4 656.1 497.99 648.61 497.38 643.51 495.67 638.68 492.39 634.16 487.77 629.39 482.52 624.88 476.24 620.7 469.24 616.3 461.95 612.24 454.23 608.65 446.33 604.93 438.38 601.76 430.39 599.28 422.54 596.86 414.69 595.37 407.33 594.8 400.44 594.45 393.46 595.09 386.82 596.65 380.42 598.51 373.74 601.28 367.08 604.89 360.32 608.76 353.08 613.41 345.55 618.71 337.71 624.21 329.36 630.29 320.74 636.8 312.05 643.44 303.27 650.45 294.85 657.68 287.26 664.99 280.44 672.47 275.11 679.99 271.73 687.54 269.91 695.1 270.39 702.54 273.28" stroke-dasharray="1 3" transform="rotate(64.64, 711, 400)" opacity="0.17"></path><path d="M698.51 283.95C705.14 287.85 711.38 293.22 717.19 299.58 722.99 306.19 728.37 313.15 733.32 320.12 738.29 326.55 742.89 332.65 747.09 338.34 753.43 345.46 765.1 357.3 770.69 362.77 774.7 366.1 778.66 369.8 782.54 374 786.81 378.04 791.01 382.73 795.05 388.12 799.4 393.46 803.48 399.57 807.13 406.47 810.85 413.37 813.76 420.76 815.81 428.52 817.66 436.27 818.51 444.36 818.36 452.6 817.88 460.75 816.38 468.9 813.93 476.76 811.16 484.26 807.51 491.16 803.1 497.11 798.45 502.26 793.15 506.08 787.34 508.26 781.39 509.35 775.03 508.66 768.39 506.16 761.7 502.85 754.79 498.15 747.78 492.4 740.76 486.9 733.66 481.27 726.58 476.01 719.49 472.33 712.74 469.83 706.36 468.57 699.95 469.04 693.88 470.38 688.17 472.24 679.65 476.35 664.01 482.35 656.81 482.73 649.62 481.24 636.28 471.54 630.18 463.97 626.05 458.41 622.26 452.24 618.91 445.66 615.46 439.01 612.53 432.08 610.22 424.99 607.96 417.9 606.52 410.98 605.91 404.26 605.46 397.48 605.87 390.78 607.09 384.12 608.54 377.27 610.8 370.31 613.79 363.21 617.01 355.79 620.91 348.14 625.4 340.3 630.06 332.22 635.25 324.06 640.85 316.05 646.58 308.18 652.65 300.82 658.96 294.36 665.33 288.68 671.89 284.38 678.52 281.81 685.18 280.54 691.88 281.22 698.51 283.95" stroke-dasharray="12 10" transform="rotate(68.68, 711, 400)" opacity="0.45"></path><path d="M695.29 294.62C706.99 302.34 717.52 314.12 726.64 327.24 735.92 339.14 744.18 350.3 751.42 360.31 759.41 368.23 767.01 376.22 774.07 385.04 782.27 393.22 789.95 403.37 796.19 415.81 802.66 428.25 806.04 441.93 806.22 455.65 805.47 468.82 801.31 480.75 794.36 489.4 786.66 495.5 776.71 496.51 765.41 491.72 753.91 485.09 741.48 475.41 728.82 465.34 716.16 460.13 704.42 458.35 693.87 459.19 683.13 463.49 673.26 466.7 664.48 467.11 655.19 466.89 646.72 462.65 639.49 454.92 631.76 446.51 625.39 435.6 621.16 423.03 617.07 410.45 616 397.49 617.7 384.39 620.08 370.83 625.24 356.46 632.57 341.82 640.45 326.99 650.16 312.93 660.92 301.77 671.89 293.45 683.59 290.63 695.29 294.62" stroke-dasharray="2 2" transform="rotate(72.72, 711, 400)" opacity="0.35"></path><path d="M693.1 305.29C703.28 312.02 712.66 322.28 721.03 334.02 729.54 345.24 737.34 356.33 744.34 366.65 751.92 375.52 759.13 384.26 765.72 393.27 773.11 401.73 779.88 411.38 785.25 422.37 790.79 433.35 793.73 444.7 794 455.4 793.67 465.56 790.5 474 784.96 479.29 778.87 482.76 770.75 482.1 761.29 477.1 751.66 471.24 741.01 463.15 729.9 454.67 718.8 449.87 708.28 447.37 698.66 446.81 688.89 449.19 679.79 451.1 671.61 451.22 663.08 451.44 655.28 448.64 648.64 442.84 641.66 436.66 635.93 427.9 632.1 417 628.38 406.1 627.26 394.18 628.49 381.79 630.21 369.22 634.29 355.95 640.27 342.82 646.65 330.01 654.68 318.35 663.73 309.55 672.93 303.23 682.92 301.48 693.1 305.29" stroke-dasharray="11 3" transform="rotate(76.76, 711, 400)" opacity="0.95"></path><path d="M692.07 315.96C700.77 321.69 709.01 330.39 716.54 340.54 724.2 350.64 731.38 361.05 737.94 371.04 744.9 380.18 751.51 389.16 757.48 398.03 763.96 406.52 769.78 415.52 774.31 424.98 778.96 434.43 781.44 443.44 781.75 451.32 780.5 461.52 767.04 467.9 756.06 462.44 748.19 457.53 739.27 450.99 729.76 444 720.24 439.68 711.03 436.77 702.45 435.14 693.79 435.84 685.61 436.35 678.19 435.8 670.56 435.72 663.56 433.51 657.62 428.94 651.47 424.24 646.43 417.2 643.04 407.98 639.73 398.75 638.61 388.31 639.46 377.31 640.63 366.34 643.77 354.89 648.52 343.88 653.55 333.45 660.02 324.32 667.47 317.8 675.02 313.27 683.36 312.42 692.07 315.96" stroke-dasharray="2 8" transform="rotate(80.80000000000001, 711, 400)" opacity="0.89"></path><path d="M692.27 326.63C699.52 331.37 706.57 338.48 713.16 346.9 719.84 355.53 726.23 364.7 732.13 373.76 738.29 382.41 744.11 390.97 749.3 399.22 754.81 407.25 759.67 415.32 763.37 423.18 768.43 442.39 758.44 452.75 749.78 447.86 743.53 443.99 736.29 438.92 728.39 433.33 720.48 429.58 712.67 426.52 705.28 424.21 697.85 423.58 690.74 422.84 684.26 421.49 677.65 420.71 671.59 418.53 666.45 414.66 661.19 410.82 656.89 405.11 653.98 397.55 651.13 389.98 650.06 381.34 650.6 372.26 651.33 363.32 653.67 354.16 657.34 345.62 661.18 337.7 666.25 331.05 672.2 326.59 678.22 323.6 685.01 323.45 692.27 326.63" stroke-dasharray="11 11" transform="rotate(84.84, 711, 400)" opacity="0.42"></path><path d="M693.69 337.3C705.34 345.61 716.95 360.03 726.83 375.2 737.33 389.96 746.73 404.82 752.43 417.29 758.4 433.48 743.4 435.11 725.89 422.66 713.3 417.75 700.55 413.41 689.83 408.86 678.88 406.27 669.71 399.47 664.92 387.55 660.29 375.62 661.33 361.1 666.7 348.61 672.43 338.1 682.03 333 693.69 337.3" stroke-dasharray="0 12" transform="rotate(88.88, 711, 400)" opacity="0.59"></path><path d="M696.23 347.97C705.02 354.02 714.11 364.53 721.95 375.92 730.09 387.44 737.27 399.13 741.49 408.36 745.88 420 735.31 420.62 722.42 411.99 713.06 407.87 703.29 403.21 694.98 398.29 686.6 394.66 679.56 388.58 675.86 379.74 672.25 370.91 672.81 361.08 676.58 353.31 680.51 346.79 687.44 344.24 696.23 347.97" stroke-dasharray="4 7" transform="rotate(92.92, 711, 400)" opacity="0.87"></path><path d="M699.74 358.64C711.56 367.24 725.11 385.82 730.55 397.95 736.18 410.06 730.56 410.51 718.2 401.32 705.84 396.56 691.87 387.21 686.8 375.51 681.89 363.8 687.9 354.19 699.74 358.64" stroke-dasharray="1 11" transform="rotate(96.96, 711, 400)" opacity="0.97"></path></g></svg>